<?xml version="1.0" encoding="UTF-8"?>
<svg id="_Слой_2" data-name="Слой 2" xmlns="http://www.w3.org/2000/svg" viewBox="0 0 146.96 68.08">
  <defs>
    <style>
      .cls-1 {
        fill: #010101;
      }
    </style>
  </defs>
  <g id="Layer_1" data-name="Layer 1">
    <g>
      <g>
        <path class="cls-1" d="M111.83,35.4c2.31-1.53,7-4.74,9.08-6.28,2.39-1.76,4.16-3.23,6.02-4.92,4.94-4.19,6.81-6.49,11.92-11.2,2.01-1.84,3.96-4.14,4.89-5.1,2.57-2.96,3.19-3.55,3.21-4.69.06-2.49-.83-3.12-4.38-3.21-1.51-.04-11.45,7.36-12.86,9.37-.85.81-6.27,5.75-9.38,9.53-2.18,2.44-7.63,8.74-9.34,10.81-1.17,1.41-1.33,1.71-2.57,3.04-2.72,2.88-5.65,5.31-9.32,7.11-3.2,2-8.39,4.55-9,4.88-.36.17-.76.37-1.16.56-.89.37-1.83.62-2.85.6l-.91-.02c0-.08-.14-.38-.14-.46.06-2.34,4.41-3.98,4.5-7.83.03-1.13-.55-2.13-1.06-3.05,2.01-1.69,4.67-2.38,6.83-3.92,3.7-2.63,7.39-5.49,10.58-8.82.78-.81,1.33-1.71,2.1-2.44,1.01-.96,2.16-1.84,2.95-3.03.78-1.12,1.19-2.39,1.23-3.75.03-1.21-1.69-2.16-2.75-2.18-1.51-.04-3.11.3-4.42,1.18-6.77,4.52-11.76,10.83-17.57,16.36-.93.89-2.15,1.23-3,2.12-2.02,2.07-6.55,8.01-7.97,10.55-1.57,1.16-2.92,2.65-4.64,3.64-.85.26-1.61,1.05-2.58,1.03-.76-.02-1.59.11-2.35.09h-.23c2.08-1.47,3.45-4.99,3.51-7.48,0-.38-.13-.91-.58-.92-1.21-.03-2.28.4-3.28,1.06-.59-.62-1.41-1.09-2.32-1.12-1.74-.04-3.79.59-5.33,1.38-.6-.01-2.66.54-3.2.83-2,1.24-1.79,2.15-2.74,3.94-1.19,2.24-4.48,3.97-4.56,7.07-.04,1.66.83,3.2,2.64,3.24,2.19.05,8.45-2.21,10.3-3.53,2.54-1.83,2.79-2.66,6.13-3.1.97-.15,2.31-.38,3.45-.83.92-.27,1.84-.9,2.57-1.36-.08,3.48-3.17,6.12-3.24,8.62-.03,1.13,1.55,1.63,2.46,1.65,2.65.06,8.69-5.91,10.7-7.83.91.16,5.3-.19,5.6-.24.3-.07,1.76-.79,2.06-.93,6.79-2.56,7.88-3.51,9.94-4.3.69-.28.98.1.35.99-1.88,2.83-3.11,6.5-3.45,8.08-.52,2.64.57,4.33,2.99,4.38,4.19.1,14.26-6.5,17.76-8.48-.29.77-.47,1.44-.36,1.72.93,2.14,1.73,3.6,4.75,3.67,7.11.17,12.54-2.34,16.46-5.2.84-.58,1.55-1.7-.51-.84-5.29,2.82-10.76,4.05-14.39,3.96-.38,0-2.49-.36-2.46-1.27.04-1.51,7.04-3.53,8.2-4.26,4.15-2.55,9.42-4.76,9.54-9.67.02-.83-.79-1.76-2.23-1.79-2.34-.06-4.69.19-7.37,1.56-3.68,1.88-7.46,5.04-9.89,8.68-.41.64-.82,1.42-1.19,2.19-.2-.08-.47-.09-.83.11-4.52,2.31-9.28,5.3-12.17,5.75-2.2.32-3.78-.09-4.28-1.09.03-1.13.35-1.88.67-2.71,1.29-3.07,5.91-9.54,9.44-11.87ZM141.17,4.58c1.21.03,1.72.87,1.17,1.77-3.69,5.51-13.43,14.04-17.6,17.8-2.86,2.5-8.25,6.3-11.86,8.56,3.3-4.84,23.45-28.24,28.29-28.13ZM64.97,43.79c-2.53,4.55-5.2,5.24-9.91,6.41-.53.14-1.07.28-1.67.26-.68-.02-1.43-.49-1.41-1.24.07-2.8,7.19-9.58,9.84-9.52.76.02,3.58,1.9,3.56,2.73-.01.45-.17.9-.41,1.35ZM103.01,15.9c1.39-1.18,2.31-1.83,4.2-1.79.23,0,.45.01.68.17l.14.46c.28.91-1.43,2.69-1.97,3.28-5.52,6.22-12.21,10.74-19.06,15.42l-.61.14-.52-.39c.74-2.4,14.36-14.93,17.14-17.28ZM76.21,50.87c-.71.97-1.77,1.39-2.91,1.37-.15,0-.3,0-.38-.08l-.15-.23.16-.45c.04-1.51,1.88-5.63,3.61-5.58.98.02,1.72.72,2.62,1.05l1.14-.05c-1.09,1.49-2.42,3.19-4.11,3.98ZM81.25,45.85c-1.43-.26-3.1.08-3.05-1.97.03-1.28,4.74-4.95,6.02-4.92.68.02,1.12.63,1.1,1.31-.03,1.28-2.99,4.84-4.07,5.57ZM123.43,43.78c1.9-3.28,8.36-7.96,11.69-7.88.98.02,1.42.49,1.41,1.09-.05,1.89-10.22,6.86-11.98,7.42-1.91.71-1.12-.63-1.12-.63Z"/>
        <path class="cls-1" d="M64.16,21.09c8.88-7.57,14.71-10.76,18.78-13.31,2.54-1.75,6.06-3.41,9.53-3.17h.38s3.62.63,3.62.63c.45.16,1.2.41,1.5.42.76.02,1.07-.43,1.08-.81.01-.53-3.72-2.66-6.14-2.72-4.53-.11-7.28.96-10.96,2.76-.38.22-1.38.65-1.69,1.02-1.69,1.17-4.53,2.84-6.22,3.93-5.68,3.57-13.49,10.33-17.91,14.76-1.78,1.85-1.94,1.92-3.26,3.47-.7.89-5.3,6.22-5.52,6.22-.6-.01-.26-1.82-.25-2.27.14-5.9,2.95-12.33,7.6-16.83,1.55-1.48,5.75-6.29,5.83-9.69.03-1.13-.79-1.91-1.84-1.94-3.55-.09-7.46,4.96-10.23,9.96-2.05,3.43-3.05,7.26-4.54,9.42-.94,1.34-2.96,3.41-3.81,4.37-3.17,2.72-5.28,5.69-8.23,8.57-3.25,3.1-5.96,5.75-8.75,8.18-1.15.58-2.32,1.99-2.78,2.28-1.62,1.09-3.78,3.08-5.55,4.33-3,2.2-5.46,3.87-8.83,5.46C3.53,57.35.05,57.27,0,59.31c-.01.53,1.41,1.24,1.63,1.25,3.34-.3,5.7-.99,8.08-2.68,3.62-2.48,7.79-6.01,8.87-6.89,4.09-3.3,7.94-6.31,11.82-10.3,1.93-1.69,3.27-3.7,5.19-5.17,2.55-2.43,5.72-5.23,8.2-7.51,0,.15.06.53.05.98-.12,4.91-1.63,7.75-2.43,9.62-1.69,4.04-2.68,4.32-4.97,8.35-.31.45-.94,1.26-1.25,1.63-3.39,2.79-6.29,6.65-8.51,10.99v.15c-.02.53,1.7,1.55,2.38,1.57,3.18.08,8.38-8.57,10.59-12.6,0-.3,1.57-2.53,2.28-3.42,1.87-2.3,5.31-6.83,7.79-9.26,4.34-4.21,10.18-11.1,14.43-14.93ZM55.64,7.72c.37.08.6.39.58.92-.25,1.05-3.14,4.84-4.28,5.04-.08,0-.07-.08-.07-.15.03-1.21,2.63-5.61,3.77-5.81Z"/>
      </g>
      <g>
        <path class="cls-1" d="M46.27,63.3v4.68h-.78v-2.01h-2.44v2.01h-.78v-4.68h.78v1.94h2.44v-1.94h.78Z"/>
        <path class="cls-1" d="M48.48,65.64c0-1.46.97-2.44,2.41-2.44s2.41.98,2.41,2.44-.97,2.44-2.41,2.44-2.41-.98-2.41-2.44ZM52.51,65.64c0-1.02-.65-1.72-1.62-1.72s-1.62.7-1.62,1.72.66,1.72,1.62,1.72,1.62-.7,1.62-1.72Z"/>
        <path class="cls-1" d="M55.23,65.64c0-1.46.97-2.44,2.41-2.44s2.41.98,2.41,2.44-.97,2.44-2.41,2.44-2.41-.98-2.41-2.44ZM59.26,65.64c0-1.02-.65-1.72-1.62-1.72s-1.62.7-1.62,1.72.66,1.72,1.62,1.72,1.62-.7,1.62-1.72Z"/>
        <path class="cls-1" d="M65.07,67.98l-2.02-2.1v2.1h-.79v-4.68h.79v2l1.87-2h1.02l-2.14,2.27,2.34,2.41h-1.06Z"/>
        <path class="cls-1" d="M71.22,67.01h-2.51l-.43.97h-.84l2.1-4.68h.87l2.09,4.68h-.85l-.43-.97ZM69,66.3h1.91l-.96-2.21-.96,2.21Z"/>
        <path class="cls-1" d="M78.46,63.3v4.68h-.78v-2.01h-2.44v2.01h-.78v-4.68h.78v1.94h2.44v-1.94h.78Z"/>
        <path class="cls-1" d="M84.82,64.93c0,.98-.67,1.63-1.69,1.63h-1.4v1.42h-.78v-4.68h2.18c1.02,0,1.69.65,1.69,1.63ZM84.05,64.93c0-.55-.38-.92-.96-.92h-1.36v1.84h1.36c.57,0,.96-.36.96-.92Z"/>
        <path class="cls-1" d="M86.92,63.3h.78v3.95h2.47v.73h-3.25v-4.68Z"/>
        <path class="cls-1" d="M95.46,67.01h-2.51l-.43.97h-.84l2.1-4.68h.87l2.09,4.68h-.85l-.43-.97ZM93.24,66.3h1.91l-.96-2.21-.96,2.21Z"/>
        <path class="cls-1" d="M98.23,65.64c0-1.43,1.01-2.43,2.45-2.43.68,0,1.28.25,1.74.72l-.52.48c-.32-.32-.72-.49-1.2-.49-1,0-1.69.7-1.69,1.72s.69,1.72,1.69,1.72c.47,0,.92-.18,1.25-.5l.5.52c-.47.46-1.06.7-1.77.7-1.45,0-2.45-1-2.45-2.43Z"/>
        <path class="cls-1" d="M108.04,67.27v.72h-3.48v-4.68h3.44v.71h-2.67v1.25h2.55v.69h-2.55v1.31h2.71Z"/>
      </g>
    </g>
  </g>
</svg>